#!OML:ASF I:\Actors\actors\Patient Classification 2\Patient 1\Session 1\actor1.ASF
:FULLY-SPECIFIED
:DEGREES
163
root -0.58992 18.7403 5.9419 3.48793 1.70392 -4.94886
lowerback 8.66639 2.47324 3.92373
upperback -2.67102 3.71902 -0.661771
thorax -7.39143 1.62168 -3.44849
lowerneck -9.85675 -8.41466 -7.28994
upperneck 3.76192 -10.9536 9.00861
head 3.62048 -5.1734 3.18132
rclavicle 8.54774e-015 -2.38542e-014
rhumerus 18.7238 -8.53329 -35.0244
rradius 95.289
rwrist 10.7675
rhand -39.3247 -35.2369
rfingers 7.12502
rthumb -12.3167 -64.8541
lclavicle 8.54774e-015 -2.38542e-014
lhumerus -46.751 -4.12953 85.4214
lradius 49.0089
lwrist -1.21193
lhand -4.40672 -23.5871
lfingers 7.12502
lthumb 21.3633 5.2552
rfemur 0 0 0
rtibia 0
rfoot 0 0
rtoes 0
lfemur -8.61984 -6.98207 -8.90149
ltibia 24.2711
lfoot -22.6105 11.6502
ltoes -55.8906
164
root -0.586936 18.7416 5.9445 3.5007 1.53349 -4.85348
lowerback 8.79172 2.44162 4.08357
upperback -2.73668 3.6952 -0.764859
thorax -7.52028 1.59469 -3.65365
lowerneck -10.0363 -8.39712 -6.79624
upperneck 4.11753 -10.9653 8.49819
head 3.69993 -5.18365 2.93834
rclavicle -5.00937e-014 -6.36111e-015
rhumerus 19.7146 -8.90404 -35.1991
rradius 95.4828
rwrist 10.9217
rhand -40.1398 -36.4725
rfingers 7.12502
rthumb -13.1025 -66.0409
lclavicle -5.00937e-014 -6.36111e-015
lhumerus -46.8247 -3.73562 85.1523
lradius 48.6189
lwrist -1.42586
lhand -4.58089 -23.7546
lfingers 7.12502
lthumb 21.1961 5.10662
rfemur 0 0 0
rtibia 0
rfoot 0 0
rtoes 0
lfemur -8.5401 -7.03388 -9.03892
ltibia 24.2332
lfoot -22.7221 11.774
ltoes -55.7477
165
root -0.584855 18.7424 5.94965 3.50995 1.3066 -4.72467
lowerback 8.83856 2.43354 4.15113
upperback -2.79147 3.69034 -0.841294
thorax -7.59781 1.58369 -3.77667
lowerneck -9.7533 -8.25665 -6.73374
upperneck 3.96485 -10.8058 8.68373
head 3.60426 -5.1057 3.01166
rclavicle 1.70209e-014 9.54166e-015
rhumerus 20.602 -8.87897 -35.1739
rradius 95.8247
rwrist 10.9685
rhand -40.7417 -37.5258
rfingers 7.12502
rthumb -13.6827 -67.056
lclavicle 1.70209e-014 9.54166e-015
lhumerus -46.8853 -3.40012 84.9333
lradius 48.0919
lwrist -1.55965
lhand -4.68003 -24.26
lfingers 7.12502
lthumb 21.1008 4.61188
rfemur 0 0 0
rtibia 0
rfoot 0 0
rtoes 0
lfemur -8.42227 -7.1095 -9.22916
ltibia 24.18
lfoot -22.8773 12.001
ltoes -55.6434
166
root -0.58413 18.7423 5.95908 3.50019 1.01779 -4.65008
lowerback 8.81434 2.43755 4.23553
upperback -2.83809 3.70246 -0.888429
thorax -7.62494 1.58276 -3.87594
lowerneck -9.56526 -8.12998 -6.67426
upperneck 3.97903 -10.6651 8.81267
head 3.57237 -5.03478 3.05975
rclavicle -1.04859e-014 -1.19271e-014
rhumerus 21.4211 -8.45838 -35.0441
rradius 96.0904
rwrist 11.1597
rhand -40.251 -37.6251
rfingers 7.12502
rthumb -13.2098 -67.1866
lclavicle -1.04859e-014 -1.19271e-014
lhumerus -46.864 -2.99116 84.6827
lradius 47.3207
lwrist -1.7536
lhand -4.68631 -25.2331
lfingers 7.12502
lthumb 21.0948 3.63943
rfemur 0 0 0
rtibia 0
rfoot 0 0
rtoes 0
lfemur -8.25547 -7.11406 -9.36843
ltibia 24.1181
lfoot -22.9812 12.269
ltoes -55.6795
167
root -0.586425 18.7425 5.96852 3.49369 0.783167 -4.59761
lowerback 8.71864 2.44282 4.28783
upperback -2.86167 3.71024 -0.912738
thorax -7.58965 1.58441 -3.92713
lowerneck -9.59814 -8.09169 -6.55306
upperneck 4.25967 -10.6388 8.71624
head 3.6486 -5.01886 3.00803
rclavicle -1.22501e-014 6.36111e-015
rhumerus 22.1239 -7.84171 -34.8058
rradius 96.2526
rwrist 11.4501
rhand -40.1621 -37.0613
rfingers 7.12502
rthumb -13.1241 -66.6283
lclavicle -1.22501e-014 6.36111e-015
lhumerus -46.7467 -2.65485 84.5225
lradius 46.5756
lwrist -2.16056
lhand -4.61144 -25.7169
lfingers 7.12502
lthumb 21.1667 3.14754
rfemur 0 0 0
rtibia 0
rfoot 0 0
rtoes 0
lfemur -8.11457 -7.0362 -9.45902
ltibia 24.0602
lfoot -22.9936 12.4509
ltoes -55.8257
168
root -0.591509 18.742 5.97518 3.5217 0.617059 -4.56758
lowerback 8.56789 2.45173 4.31517
upperback -2.87788 3.71863 -0.916761
thorax -7.51731 1.58957 -3.9392
lowerneck -9.63019 -8.07968 -6.53672
upperneck 4.54682 -10.6394 8.6702
head 3.73729 -5.01568 2.98524
rclavicle 3.54582e-014 -1.35174e-014
rhumerus 22.5971 -7.12266 -34.4215
rradius 96.4464
rwrist 11.4416
rhand -41.0087 -36.7925
rfingers 7.12502
rthumb -13.94 -66.3052
lclavicle 3.54582e-014 -1.35174e-014
lhumerus -46.6003 -2.57981 84.5801
lradius 46.1091
lwrist -2.67092
lhand -4.41203 -25.2033
lfingers 7.12502
lthumb 21.3583 3.63966
rfemur 0 0 0
rtibia 0
rfoot 0 0
rtoes 0
lfemur -8.04748 -6.89118 -9.49087
ltibia 24.015
lfoot -22.9929 12.4968
ltoes -55.8792
